<svg width="24" height="24" viewBox="0 0 24 24" fill="none" xmlns="http://www.w3.org/2000/svg">
<path d="M20.775 9.2601H14.8758V1.8894C14.8758 1.37165 14.4094 0.951904 13.8341 0.951904H10.2925C9.7172 0.951904 9.25079 1.37165 9.25079 1.8894V9.2601H3.35157C2.82856 9.2601 2.4046 9.67984 2.4046 10.1976V22.068C2.4046 22.5858 2.82859 23.0055 3.35157 23.0055H20.775C21.298 23.0055 21.722 22.5858 21.722 22.068V10.1976C21.722 9.67982 21.298 9.2601 20.775 9.2601V9.2601ZM20.5238 21.8336H17.5242V19.4766C17.5242 19.0624 17.2409 18.7266 16.8914 18.7266C16.5419 18.7266 16.2586 19.0624 16.2586 19.4766V21.8336H12.6961V18.5625C12.6961 18.213 12.4128 17.9297 12.0633 17.9297C11.7138 17.9297 11.4305 18.213 11.4305 18.5625V21.8336H7.86798V19.4766C7.86798 19.0624 7.58466 18.7266 7.23516 18.7266C6.88566 18.7266 6.60235 19.0624 6.60235 19.4766V21.8336H3.57648V16.1328H20.5238V21.8336ZM20.5238 14.9609H3.57648V10.432H10.4175V2.12378H13.6476V10.432H20.5237V14.9609H20.5238Z" fill="#117ADE"/>
</svg>
