<svg width="27" height="26" viewBox="0 0 27 26" fill="none" xmlns="http://www.w3.org/2000/svg">
<g clip-path="url(#clip0_27_203)">
<path d="M9.0707 12.6458H3.61344C3.19453 12.6452 2.77986 12.5618 2.39327 12.4004C2.00667 12.2391 1.65576 12.0029 1.36068 11.7056C1.0656 11.4082 0.832163 11.0555 0.673784 10.6677C0.515405 10.2799 0.435199 9.8646 0.437774 9.44569V4.01286C0.439066 3.17102 0.774059 2.36402 1.36933 1.76875C1.96461 1.17348 2.7716 0.838484 3.61344 0.837192H9.0707C9.91255 0.838484 10.7195 1.17348 11.3148 1.76875C11.9101 2.36402 12.2451 3.17102 12.2464 4.01286V9.44569C12.2489 9.8646 12.1687 10.2799 12.0104 10.6677C11.852 11.0555 11.6185 11.4082 11.3235 11.7056C11.0284 12.0029 10.6775 12.2391 10.2909 12.4004C9.90428 12.5618 9.48962 12.6452 9.0707 12.6458V12.6458ZM3.61344 2.30288C3.15993 2.30288 2.72499 2.48304 2.40431 2.80372C2.08362 3.12441 1.90347 3.55935 1.90347 4.01286V9.44569C1.90347 9.89921 2.08362 10.3341 2.40431 10.6548C2.72499 10.9755 3.15993 11.1557 3.61344 11.1557H9.0707C9.52422 11.1557 9.95916 10.9755 10.2798 10.6548C10.6005 10.3341 10.7807 9.89921 10.7807 9.44569V4.01286C10.7807 3.55935 10.6005 3.12441 10.2798 2.80372C9.95916 2.48304 9.52422 2.30288 9.0707 2.30288H3.61344ZM9.0707 25.837H3.61344C3.19453 25.8364 2.77986 25.753 2.39327 25.5917C2.00667 25.4303 1.65576 25.1942 1.36068 24.8968C1.0656 24.5995 0.832163 24.2468 0.673784 23.8589C0.515405 23.4711 0.435199 23.0558 0.437774 22.6369V17.2041C0.439066 16.3623 0.774059 15.5553 1.36933 14.96C1.96461 14.3647 2.7716 14.0297 3.61344 14.0284H9.0707C9.91255 14.0297 10.7195 14.3647 11.3148 14.96C11.9101 15.5553 12.2451 16.3623 12.2464 17.2041V22.6369C12.2489 23.0558 12.1687 23.4711 12.0104 23.8589C11.852 24.2468 11.6185 24.5995 11.3235 24.8968C11.0284 25.1942 10.6775 25.4303 10.2909 25.5917C9.90428 25.753 9.48962 25.8364 9.0707 25.837V25.837ZM3.61344 15.4941C3.15993 15.4941 2.72499 15.6743 2.40431 15.995C2.08362 16.3156 1.90347 16.7506 1.90347 17.2041V22.6369C1.90347 23.0904 2.08362 23.5254 2.40431 23.8461C2.72499 24.1667 3.15993 24.3469 3.61344 24.3469H9.0707C9.52422 24.3469 9.95916 24.1667 10.2798 23.8461C10.6005 23.5254 10.7807 23.0904 10.7807 22.6369V17.2041C10.7807 16.7506 10.6005 16.3156 10.2798 15.995C9.95916 15.6743 9.52422 15.4941 9.0707 15.4941H3.61344ZM22.5844 25.837H17.132C16.2902 25.8357 15.4832 25.5007 14.8879 24.9055C14.2926 24.3102 13.9576 23.5032 13.9563 22.6614V17.2041C13.9576 16.3623 14.2926 15.5553 14.8879 14.96C15.4832 14.3647 16.2902 14.0297 17.132 14.0284H22.5844C23.4262 14.0297 24.2332 14.3647 24.8285 14.96C25.4238 15.5553 25.7588 16.3623 25.7601 17.2041V22.6369C25.7626 23.0558 25.6824 23.4711 25.524 23.8589C25.3657 24.2468 25.1322 24.5995 24.8372 24.8968C24.5421 25.1942 24.1912 25.4303 23.8046 25.5917C23.418 25.753 23.0033 25.8364 22.5844 25.837V25.837ZM17.132 15.4941C16.6785 15.4941 16.2436 15.6743 15.9229 15.995C15.6022 16.3156 15.422 16.7506 15.422 17.2041V22.6369C15.422 23.0904 15.6022 23.5254 15.9229 23.8461C16.2436 24.1667 16.6785 24.3469 17.132 24.3469H22.5844C22.8089 24.3469 23.0313 24.3027 23.2388 24.2167C23.4462 24.1308 23.6347 24.0049 23.7935 23.8461C23.9523 23.6873 24.0783 23.4988 24.1642 23.2913C24.2501 23.0838 24.2944 22.8615 24.2944 22.6369V17.2041C24.2944 16.9795 24.2501 16.7572 24.1642 16.5497C24.0783 16.3423 23.9523 16.1537 23.7935 15.995C23.6347 15.8362 23.4462 15.7102 23.2388 15.6243C23.0313 15.5384 22.8089 15.4941 22.5844 15.4941H17.132ZM19.8582 13.32C19.4408 13.3218 19.0272 13.2407 18.6414 13.0814C18.2556 12.922 17.9053 12.6876 17.6108 12.3917L14.1909 8.97179C13.5969 8.37565 13.2633 7.56839 13.2633 6.72683C13.2633 5.88528 13.5969 5.07802 14.1909 4.48188L17.6108 1.06193C18.2069 0.467928 19.0142 0.134399 19.8558 0.134399C20.6973 0.134399 21.5046 0.467928 22.1007 1.06193L25.5207 4.48188C26.1147 5.07802 26.4482 5.88528 26.4482 6.72683C26.4482 7.56839 26.1147 8.37565 25.5207 8.97179L22.1007 12.3917C21.8068 12.687 21.4573 12.9211 21.0724 13.0804C20.6875 13.2398 20.2748 13.3212 19.8582 13.32V13.32ZM19.8582 1.62867C19.634 1.62645 19.4116 1.66847 19.2037 1.7523C18.9958 1.83614 18.8065 1.96014 18.6466 2.11723L15.2266 5.53718C15.0678 5.69597 14.9418 5.88448 14.8559 6.09196C14.7699 6.29943 14.7257 6.52181 14.7257 6.74638C14.7257 6.97095 14.7699 7.19332 14.8559 7.4008C14.9418 7.60827 15.0678 7.79679 15.2266 7.95557L18.6466 11.3755C18.9732 11.6848 19.4059 11.8571 19.8558 11.8571C20.3056 11.8571 20.7383 11.6848 21.065 11.3755L24.4849 7.95557C24.8044 7.63425 24.9838 7.19953 24.9838 6.74638C24.9838 6.29323 24.8044 5.8585 24.4849 5.53718L21.065 2.11723C20.7432 1.80117 20.3092 1.6255 19.8582 1.62867V1.62867Z" fill="white"/>
</g>
<defs>
<clipPath id="clip0_27_203">
<rect width="26" height="26" fill="white" transform="translate(0.437714)"/>
</clipPath>
</defs>
</svg>
