<svg xmlns="http://www.w3.org/2000/svg" xmlns:xlink="http://www.w3.org/1999/xlink" fill="none" version="1.1" width="24" height="24" viewBox="0 0 24 24"><clipPath id="master_svg0_1_27"><rect x="0" y="0" width="24" height="24" rx="0"/></clipPath><g clip-path="url(#master_svg0_1_27)"><g><path d="M14.49598291015625,9.98398291015625L18.43198291015625,9.98398291015625C18.71998291015625,9.98398291015625,18.91198291015625,10.17598291015625,18.91198291015625,10.46398291015625C18.91198291015625,10.75198291015625,18.71998291015625,10.94398291015625,18.43198291015625,10.94398291015625L13.29598291015625,10.94398291015625C13.00798291015625,10.94398291015625,12.81598291015625,10.75198291015625,12.81598291015625,10.46398291015625L12.81598291015625,10.41598291015625L12.81598291015625,5.56798291015625C12.81598291015625,5.279982910156249,13.00798291015625,5.08798291015625,13.29598291015625,5.08798291015625C13.58398291015625,5.08798291015625,13.77598291015625,5.279982910156249,13.77598291015625,5.56798291015625L13.77598291015625,9.40798291015625L18.71998291015625,4.75198291015625C18.91198291015625,4.559982910156251,19.19998291015625,4.559982910156251,19.39198291015625,4.75198291015625C19.58398291015625,4.94398291015625,19.58398291015625,5.231982910156249,19.39198291015625,5.42398291015625L14.49598291015625,9.98398291015625ZM9.98398291015625,14.01598291015625L6.04798291015625,14.01598291015625C5.75998291015625,14.01598291015625,5.56798291015625,13.82398291015625,5.56798291015625,13.53598291015625C5.56798291015625,13.24798291015625,5.75998291015625,13.05598291015625,6.04798291015625,13.05598291015625L11.18398291015625,13.05598291015625C11.47198291015625,13.05598291015625,11.66398291015625,13.24798291015625,11.66398291015625,13.53598291015625L11.66398291015625,18.43198291015625C11.66398291015625,18.71998291015625,11.47198291015625,18.91198291015625,11.18398291015625,18.91198291015625C10.89598291015625,18.91198291015625,10.70398291015625,18.71998291015625,10.70398291015625,18.43198291015625L10.70398291015625,14.59198291015625L5.75998291015625,19.24798291015625C5.56798291015625,19.43998291015625,5.279982910156249,19.43998291015625,5.08798291015625,19.24798291015625C4.89598291015625,19.05598291015625,4.89598291015625,18.76798291015625,5.08798291015625,18.57598291015625L9.98398291015625,14.01598291015625ZM22.07998291015625,13.43998291015625C22.07998291015625,13.72798291015625,21.88798291015625,13.91998291015625,21.59998291015625,13.91998291015625C21.31198291015625,13.91998291015625,21.11998291015625,13.72798291015625,21.11998291015625,13.43998291015625L21.11998291015625,4.31998291015625C21.11998291015625,3.50398291015625,20.49598291015625,2.87998191015625,19.67998291015625,2.87998191015625L4.31998291015625,2.87998191015625C3.50398291015625,2.87998191015625,2.87998291015625,3.50398291015625,2.87998291015625,4.31998291015625L2.87998291015625,19.67998291015625C2.87998291015625,20.49598291015625,3.50398291015625,21.11998291015625,4.31998291015625,21.11998291015625L19.67998291015625,21.11998291015625C20.49598291015625,21.11998291015625,21.11998291015625,20.49598291015625,21.11998291015625,19.67998291015625L21.11998291015625,17.47198291015625C21.11998291015625,17.18398291015625,21.31198291015625,16.99198291015625,21.59998291015625,16.99198291015625C21.88798291015625,16.99198291015625,22.07998291015625,17.18398291015625,22.07998291015625,17.47198291015625L22.07998291015625,19.67998291015625C22.07998291015625,21.02398291015625,21.02398291015625,22.07998291015625,19.67998291015625,22.07998291015625L4.31998291015625,22.07998291015625C2.97598291015625,22.07998291015625,1.91998291015625,21.02398291015625,1.91998291015625,19.67998291015625L1.91998291015625,4.31998291015625C1.91998291015625,2.97598291015625,2.97598291015625,1.91998291015625,4.31998291015625,1.91998291015625L19.67998291015625,1.91998291015625C21.02398291015625,1.91998291015625,22.07998291015625,2.97598291015625,22.07998291015625,4.31998291015625L22.07998291015625,13.43998291015625Z" fill="#333333" fill-opacity="1"/></g></g></svg>