<svg xmlns="http://www.w3.org/2000/svg" xmlns:xlink="http://www.w3.org/1999/xlink" fill="none" version="1.1" width="24" height="24" viewBox="0 0 24 24"><clipPath id="master_svg0_1_19"><rect x="0" y="0" width="24" height="24" rx="0"/></clipPath><g clip-path="url(#master_svg0_1_19)"><g><path d="M6.81598291015625,18.14398291015625L10.75198291015625,18.14398291015625C11.03998291015625,18.14398291015625,11.23198291015625,18.33598291015625,11.23198291015625,18.62398291015625C11.23198291015625,18.91198291015625,11.03998291015625,19.10398291015625,10.75198291015625,19.10398291015625L5.61598291015625,19.10398291015625C5.3279829101562495,19.10398291015625,5.13598291015625,18.91198291015625,5.13598291015625,18.62398291015625L5.13598291015625,18.57598291015625L5.13598291015625,13.72798291015625C5.13598291015625,13.43998291015625,5.3279829101562495,13.24798291015625,5.61598291015625,13.24798291015625C5.90398291015625,13.24798291015625,6.09598291015625,13.43998291015625,6.09598291015625,13.72798291015625L6.09598291015625,17.56798291015625L11.03998291015625,12.91198291015625C11.23198291015625,12.71998291015625,11.51998291015625,12.71998291015625,11.71198291015625,12.91198291015625C11.90398291015625,13.10398291015625,11.90398291015625,13.39198291015625,11.71198291015625,13.58398291015625L6.81598291015625,18.14398291015625ZM17.66398291015625,5.85598291015625L13.72798291015625,5.85598291015625C13.43998291015625,5.85598291015625,13.24798291015625,5.66398291015625,13.24798291015625,5.3759829101562495C13.24798291015625,5.08798291015625,13.43998291015625,4.89598291015625,13.72798291015625,4.89598291015625L18.86398291015625,4.89598291015625C19.15198291015625,4.89598291015625,19.34398291015625,5.08798291015625,19.34398291015625,5.3759829101562495L19.34398291015625,10.27198291015625C19.34398291015625,10.55998291015625,19.15198291015625,10.75198291015625,18.86398291015625,10.75198291015625C18.57598291015625,10.75198291015625,18.38398291015625,10.55998291015625,18.38398291015625,10.27198291015625L18.38398291015625,6.43198291015625L13.43998291015625,11.08798291015625C13.24798291015625,11.27998291015625,12.95998291015625,11.27998291015625,12.76798291015625,11.08798291015625C12.57598291015625,10.89598291015625,12.57598291015625,10.60798291015625,12.76798291015625,10.41598291015625L17.66398291015625,5.85598291015625ZM22.07998291015625,13.43998291015625C22.07998291015625,13.72798291015625,21.88798291015625,13.91998291015625,21.59998291015625,13.91998291015625C21.31198291015625,13.91998291015625,21.11998291015625,13.72798291015625,21.11998291015625,13.43998291015625L21.11998291015625,4.31998291015625C21.11998291015625,3.50398291015625,20.49598291015625,2.87998291015625,19.67998291015625,2.87998291015625L4.31998291015625,2.87998291015625C3.50398291015625,2.87998291015625,2.87998291015625,3.50398291015625,2.87998291015625,4.31998291015625L2.87998291015625,19.67998291015625C2.87998291015625,20.49598291015625,3.50398291015625,21.11998291015625,4.31998291015625,21.11998291015625L19.67998291015625,21.11998291015625C20.49598291015625,21.11998291015625,21.11998291015625,20.49598291015625,21.11998291015625,19.67998291015625L21.11998291015625,17.47198291015625C21.11998291015625,17.18398291015625,21.31198291015625,16.99198291015625,21.59998291015625,16.99198291015625C21.88798291015625,16.99198291015625,22.07998291015625,17.18398291015625,22.07998291015625,17.47198291015625L22.07998291015625,19.67998291015625C22.07998291015625,21.02398291015625,21.02398291015625,22.07998291015625,19.67998291015625,22.07998291015625L4.31998291015625,22.07998291015625C2.97598291015625,22.07998291015625,1.91998291015625,21.02398291015625,1.91998291015625,19.67998291015625L1.91998291015625,4.31998291015625C1.91998291015625,2.97598291015625,2.97598291015625,1.91998291015625,4.31998291015625,1.91998291015625L19.67998291015625,1.91998291015625C21.02398291015625,1.91998291015625,22.07998291015625,2.97598291015625,22.07998291015625,4.31998291015625L22.07998291015625,13.43998291015625Z" fill="#333333" fill-opacity="1"/></g></g></svg>