<svg width="24" height="24" viewBox="0 0 24 24" fill="none" xmlns="http://www.w3.org/2000/svg">
<path d="M20.8673 7.75571C20.5725 7.4647 20.0985 7.4662 19.8068 7.76023L12.123 15.5145L4.33203 7.79325C4.03727 7.50151 3.56326 7.50373 3.27076 7.79776C2.97902 8.09252 2.98124 8.56726 3.27527 8.85903L11.556 17.0648C11.5688 17.0775 11.5852 17.0805 11.598 17.0925C11.601 17.0955 11.6018 17.0993 11.6048 17.1023C11.751 17.247 11.9423 17.3198 12.1328 17.3198C12.3255 17.3198 12.519 17.2455 12.6653 17.0978L20.871 8.81706C21.1635 8.52222 21.1613 8.04749 20.8673 7.75571Z" fill="#117ADE"/>
</svg>
