<svg width="24" height="24" viewBox="0 0 24 24" fill="none" xmlns="http://www.w3.org/2000/svg">
<path d="M20.8673 17.1026C20.5725 17.3936 20.0985 17.3921 19.8068 17.0981L12.123 9.34387L4.33203 17.0651C4.03727 17.3568 3.56326 17.3546 3.27076 17.0606C2.97902 16.7658 2.98124 16.2911 3.27527 15.9993L11.556 7.79355C11.5688 7.78081 11.5852 7.77779 11.598 7.76582C11.601 7.76283 11.6018 7.75908 11.6048 7.75606C11.751 7.61132 11.9423 7.53855 12.1328 7.53855C12.3255 7.53855 12.519 7.61281 12.6653 7.76053L20.871 16.0413C21.1635 16.3361 21.1613 16.8108 20.8673 17.1026Z" fill="#117ADE"/>
</svg>
