<svg width="27" height="26" viewBox="0 0 27 26" fill="none" xmlns="http://www.w3.org/2000/svg">
<path d="M25.1174 13.2234C24.9549 13.2234 24.8127 13.1625 24.6908 13.0406L13.9049 2.19373C13.783 2.07185 13.6205 1.9906 13.4377 1.9906C13.2752 1.9906 13.1127 2.05154 12.9705 2.19373L2.18459 13C2.06272 13.1219 1.92053 13.1828 1.75803 13.1828C1.59553 13.1828 1.45334 13.1219 1.35178 13.0203C1.2299 12.9187 1.16897 12.7969 1.16897 12.6344C1.14865 12.4515 1.2299 12.2687 1.35178 12.1469L12.0768 1.3406C12.4424 0.974976 12.9096 0.771851 13.4174 0.771851C13.9252 0.771851 14.3924 0.974976 14.758 1.3406L25.544 12.1875C25.6658 12.3094 25.7268 12.4719 25.7268 12.6547C25.7268 12.8375 25.6252 13 25.5033 13.1015C25.3815 13.1828 25.2393 13.2234 25.1174 13.2234Z" fill="white"/>
<path d="M16.6268 25.35V24.4969H15.7737V22.9532C15.7737 21.6532 14.7174 20.6172 13.4377 20.6172C12.1377 20.6172 11.1018 21.6735 11.1018 22.9532V24.4969H10.2487V25.35H5.43459C4.39865 25.35 3.56584 24.5172 3.56584 23.4813V12.9391C3.56584 12.5938 3.8299 12.3297 4.17522 12.3297C4.52053 12.3297 4.78459 12.5938 4.78459 12.9391V23.4813C4.78459 23.8469 5.06897 24.1313 5.43459 24.1313H9.88303V22.9735C9.88303 21.0032 11.4877 19.4188 13.4377 19.4188C15.3877 19.4188 16.9924 21.0235 16.9924 22.9735V24.1313H21.4408C21.8065 24.1313 22.0908 23.8469 22.0908 23.4813V12.9391C22.0908 12.5938 22.3549 12.3297 22.7002 12.3297C23.0455 12.3297 23.3096 12.5938 23.3096 12.9391V23.4813C23.3096 24.5172 22.4768 25.35 21.4408 25.35H16.6268Z" fill="white"/>
<path d="M15.7737 25.35V24.1312H16.9924V25.35H15.7737ZM9.88303 25.35V24.1312H11.1018V25.35H9.88303Z" fill="white"/>
</svg>
