<svg width="26" height="26" viewBox="0 0 26 26" fill="none" xmlns="http://www.w3.org/2000/svg">
<path d="M13 0C16.4478 0 19.7544 1.36964 22.1924 3.80761C24.6304 6.24558 26 9.55219 26 13C26 16.4478 24.6304 19.7544 22.1924 22.1924C19.7544 24.6304 16.4478 26 13 26C9.55219 26 6.24558 24.6304 3.80761 22.1924C1.36964 19.7544 0 16.4478 0 13C0 9.55219 1.36964 6.24558 3.80761 3.80761C6.24558 1.36964 9.55219 0 13 0V0ZM3.31987 10.3967C3.19962 10.517 3.19962 10.517 3.31987 10.634C2.99975 11.1524 2.31238 11.2158 1.82 10.9038C1.5393 12.4025 1.56271 13.9424 1.88884 15.432C2.21498 16.9215 2.83718 18.3303 3.71849 19.5746C4.59979 20.819 5.72222 21.8735 7.01908 22.6755C8.31594 23.4775 9.76078 24.0107 11.2678 24.2434L11.258 24.2352L11.063 24.1378C11.4286 24.0208 11.9129 24.0207 12.2736 24.0207C12.1534 23.309 12.1534 22.7191 12.1534 22.0057C12.1534 22.0057 9.37138 19.994 9.37138 18.8078C9.37138 17.6215 9.73375 17.0316 9.37138 17.0316C8.76525 17.0316 8.03888 17.5061 7.91863 17.0316C7.6765 16.3199 7.19225 15.7284 6.46588 15.4928C4.80025 15.4928 4.56138 13.6987 4.53213 11.8495L4.5305 11.3457C4.5305 10.751 3.80412 10.751 3.31987 10.3967V10.3967ZM13.6874 1.64613L13.8271 1.6835C15.6699 2.24575 15.7235 4.10475 14.2106 3.87725C14.2106 4.46712 14.2106 5.17725 14.0904 5.889C13.9685 7.07525 12.5158 6.721 12.1534 7.3125C11.7926 7.90563 12.8797 8.49713 14.0904 8.25988C14.4527 8.25988 14.0904 7.90237 14.3341 7.78537C14.8168 7.66837 15.4213 7.66837 15.9055 7.78537C15.4125 8.85087 14.8462 9.88088 14.2106 10.868C13.9669 11.2223 14.2106 11.934 14.2106 12.4069C14.2106 15.964 12.5157 11.5781 12.2736 11.6967C12.0315 11.934 10.9444 11.4595 10.4601 11.4595C9.97587 11.4595 10.2164 12.4069 9.73375 12.4069C8.76525 12.4069 9.00738 12.1696 9.00738 12.5239C9.00738 12.9984 9.126 13.9474 9.126 15.3693C9.126 15.8438 10.0945 15.2522 10.699 15.2522C11.4254 15.2522 11.9096 15.8437 12.3939 16.081C13.2389 16.4385 14.0871 17.6231 14.6916 17.7385C15.2961 17.8604 14.8119 18.8061 15.5366 18.6875C15.899 18.5705 16.3832 18.8077 16.6254 19.162C16.9894 19.6365 16.7473 20.2313 16.263 20.5855C15.5383 21.2956 15.2961 22.1244 14.9337 23.7835C15.132 23.7185 15.366 23.8843 15.5594 24.0841C17.3806 23.6626 19.0701 22.7994 20.4789 21.5706C21.8876 20.3418 22.9723 18.7852 23.6372 17.0381C22.7175 18.0147 21.6548 18.0895 21.97 17.2624C21.606 16.5523 21.1218 15.9575 20.5173 15.366C19.4269 14.4186 18.4584 12.6392 21.8481 10.1497C21.3232 8.814 22.6233 7.566 23.4488 8.502C22.6162 6.56752 21.263 4.90215 19.5398 3.69138C17.8166 2.48062 15.7912 1.77202 13.689 1.6445L13.6874 1.64613Z" fill="white"/>
</svg>
